<svg id="Layer_1" data-name="Layer 1" xmlns="http://www.w3.org/2000/svg" xmlns:xlink="http://www.w3.org/1999/xlink" viewBox="0 0 90.58 49.33"><defs><style>.cls-1{fill:url(#linear-gradient);}.cls-2{fill:url(#linear-gradient-3);}</style><linearGradient id="linear-gradient" x1="-0.28" y1="24.67" x2="92.99" y2="24.67" gradientUnits="userSpaceOnUse"><stop offset="0" stop-color="#f18021"/><stop offset="1" stop-color="#eeb61d"/></linearGradient><linearGradient id="linear-gradient-3" x1="-0.28" y1="24.67" x2="92.99" y2="24.67" xlink:href="#linear-gradient"/></defs><title>logo</title><path class="cls-1" d="M12.3,12.33A12.34,12.34,0,1,1,0,24.7,12.31,12.31,0,0,1,12.3,12.33Z"/><path class="cls-1" d="M65.3,19.08q8.88-10,14.37-16.4Q82,0,83.66,0T88,2.25c1.74,1.51,2.61,2.81,2.61,3.93s-.65,2.42-2,4q-3.78,4.38-11.76,12l-2.61,2.48q10,9.61,14.18,14.45c1.44,1.61,2.15,3,2.15,4.08s-.87,2.42-2.61,3.92-3.17,2.25-4.28,2.25-2.45-.91-4-2.74L65.3,30.19s-3.4-3.32-3.4-5.52S65.3,19.08,65.3,19.08Z"/><path class="cls-2" d="M65.43,39.08q2.16,2.41,2.16,4.08T65,47.08c-1.75,1.5-3.17,2.25-4.28,2.25s-2.45-.91-4-2.74L42.3,30.19s-.54-.53-1.19-1.31V43.41a21.29,21.29,0,0,1-.1,2.36,5.56,5.56,0,0,1-.64,1.75q-.94,1.81-5.25,1.81-4.71,0-5.52-2.55a10.65,10.65,0,0,1-.4-3.44V5.92a19.05,19.05,0,0,1,.1-2.32,5.63,5.63,0,0,1,.63-1.78Q30.88,0,35.19,0q4.71,0,5.58,2.49A13.1,13.1,0,0,1,41.11,6V20.41c.65-.79,1.19-1.33,1.19-1.33q8.88-10,14.38-16.4Q59,0,60.66,0T65,2.26c1.74,1.5,2.61,2.8,2.61,3.92s-.65,2.42-2,4q-3.79,4.38-11.76,12l-2.62,2.49Q61.26,34.24,65.43,39.08Z"/></svg>