<svg id="Layer_1" data-name="Layer 1" xmlns="http://www.w3.org/2000/svg" xmlns:xlink="http://www.w3.org/1999/xlink" viewBox="0 0 134.83 67.55"><defs><style>.cls-1{fill:#eeb61d;}.cls-2{fill:url(#New_Gradient_Swatch_copy);}.cls-3{fill:url(#New_Gradient_Swatch_copy-2);}.cls-4{fill:url(#New_Gradient_Swatch_copy-4);}.cls-5{fill:url(#New_Gradient_Swatch_copy-5);}.cls-6{fill:url(#New_Gradient_Swatch_copy-6);}.cls-7{fill:url(#New_Gradient_Swatch_copy-7);}</style><linearGradient id="New_Gradient_Swatch_copy" x1="-1.57" y1="55.66" x2="138.95" y2="55.66" gradientUnits="userSpaceOnUse"><stop offset="0" stop-color="#f18021"/><stop offset="1" stop-color="#eeb61d"/></linearGradient><linearGradient id="New_Gradient_Swatch_copy-2" x1="-1.57" y1="55.58" x2="138.95" y2="55.58" xlink:href="#New_Gradient_Swatch_copy"/><linearGradient id="New_Gradient_Swatch_copy-4" x1="-1.57" y1="55.77" x2="138.95" y2="55.77" xlink:href="#New_Gradient_Swatch_copy"/><linearGradient id="New_Gradient_Swatch_copy-5" x1="-1.57" y1="55.71" x2="138.95" y2="55.71" xlink:href="#New_Gradient_Swatch_copy"/><linearGradient id="New_Gradient_Swatch_copy-6" x1="-1.57" y1="55.61" x2="138.95" y2="55.61" xlink:href="#New_Gradient_Swatch_copy"/><linearGradient id="New_Gradient_Swatch_copy-7" x1="-1.57" y1="55.63" x2="138.95" y2="55.63" xlink:href="#New_Gradient_Swatch_copy"/></defs><title>logo</title><path class="cls-1" d="M41.07,9.85a9.85,9.85,0,1,1-9.83,9.88A9.84,9.84,0,0,1,41.07,9.85Z"/><path class="cls-1" d="M83.39,15.24q7.1-8,11.48-13.1C96.09.71,97.15,0,98.06,0s2,.6,3.44,1.8,2.09,2.24,2.09,3.13A5.25,5.25,0,0,1,102,8.09q-3,3.5-9.39,9.6l-2.09,2q8,7.66,11.33,11.53a5.5,5.5,0,0,1,1.72,3.26c0,.89-.7,1.93-2.09,3.13S99,39.4,98.08,39.4s-2-.73-3.21-2.19L83.39,24.11s-2.71-2.65-2.71-4.41S83.39,15.24,83.39,15.24Z"/><path class="cls-1" d="M83.5,31.21a5.44,5.44,0,0,1,1.72,3.26c0,.89-.69,1.93-2.08,3.13s-2.54,1.8-3.42,1.8-2-.73-3.21-2.19L65,24.11s-.44-.42-1-1v11.6A14.27,14.27,0,0,1,64,36.55a4.15,4.15,0,0,1-.51,1.4c-.5,1-1.9,1.45-4.19,1.45q-3.76,0-4.41-2a8.61,8.61,0,0,1-.32-2.74V4.73a16.44,16.44,0,0,1,.08-1.85,4.21,4.21,0,0,1,.51-1.43c.5-1,1.9-1.45,4.19-1.45q3.77,0,4.47,2a11.21,11.21,0,0,1,.26,2.8V16.3c.52-.63,1-1.06,1-1.06q7.09-8,11.48-13.1C77.73.71,78.79,0,79.69,0s2,.6,3.45,1.8S85.22,4,85.22,4.93a5.28,5.28,0,0,1-1.56,3.16q-3,3.5-9.4,9.6l-2.08,2Q80.16,27.35,83.5,31.21Z"/><path class="cls-2" d="M11.32,43.77a11.18,11.18,0,0,1,8.1,3.38,11.27,11.27,0,0,1,3.44,8.37A12,12,0,0,1,19.58,64a10.6,10.6,0,0,1-8.07,3.52,10.92,10.92,0,0,1-8.15-3.47A11.47,11.47,0,0,1,0,55.82a12.66,12.66,0,0,1,1-4.9,11.3,11.3,0,0,1,2.52-3.83,11.88,11.88,0,0,1,3.62-2.43A10.6,10.6,0,0,1,11.32,43.77ZM5.58,55.66a6.09,6.09,0,0,0,1.81,4.56,5.61,5.61,0,0,0,8.09.05,6,6,0,0,0,1.8-4.58,6.11,6.11,0,0,0-1.81-4.6,5.71,5.71,0,0,0-4.06-1.73,5.63,5.63,0,0,0-4,1.75A6,6,0,0,0,5.58,55.66Z"/><path class="cls-3" d="M34.45,55.57q4.83,4.63,6.84,7a3.23,3.23,0,0,1,1,2q0,.8-1.26,1.89A3.64,3.64,0,0,1,39,67.49c-.54,0-1.19-.45-1.94-1.33l-6.94-7.91V64.4a7.49,7.49,0,0,1-.05,1.1,2.51,2.51,0,0,1-.3.82c-.29.57-1.11.85-2.46.85S25,66.77,24.74,66a4.82,4.82,0,0,1-.19-1.61V46.83a9.24,9.24,0,0,1,.05-1.08,2.38,2.38,0,0,1,.3-.84c.29-.57,1.11-.85,2.46-.85s2.34.39,2.61,1.16a6.09,6.09,0,0,1,.16,1.64v6q4.29-4.83,6.94-7.92,1.09-1.29,1.92-1.29a3.56,3.56,0,0,1,2.08,1.09q1.26,1.08,1.26,1.89a3.18,3.18,0,0,1-.94,1.91q-1.83,2.11-5.68,5.8Z"/><path class="cls-3" d="M53.75,55.57q4.81,4.63,6.84,7a3.29,3.29,0,0,1,1,2q0,.8-1.26,1.89a3.63,3.63,0,0,1-2.07,1.09c-.53,0-1.18-.45-1.93-1.33l-6.94-7.91V64.4a9.26,9.26,0,0,1,0,1.1,2.51,2.51,0,0,1-.3.82c-.29.57-1.11.85-2.46.85S44.29,66.77,44,66a4.82,4.82,0,0,1-.19-1.61V46.83a9.75,9.75,0,0,1,0-1.08,2.86,2.86,0,0,1,.3-.84c.3-.57,1.12-.85,2.46-.85s2.35.39,2.62,1.16a6.09,6.09,0,0,1,.16,1.64v6q4.29-4.83,6.94-7.92,1.1-1.29,1.92-1.29a3.56,3.56,0,0,1,2.08,1.09q1.26,1.08,1.26,1.89a3.18,3.18,0,0,1-.94,1.91C59.47,50,57.57,51.91,55,54.37Z"/><path class="cls-4" d="M76.54,45.7l8.52,17.59a4.23,4.23,0,0,1,.53,1.61c0,.76-.61,1.44-1.83,2a4.07,4.07,0,0,1-1.68.54,1.68,1.68,0,0,1-1-.29,1.77,1.77,0,0,1-.57-.6c-.12-.21-.28-.52-.49-.94l-1.64-3.41H69.64L68,65.66c-.21.42-.38.72-.49.91a2.21,2.21,0,0,1-.57.58,1.62,1.62,0,0,1-1,.3,4.1,4.1,0,0,1-1.69-.53c-1.21-.59-1.82-1.26-1.82-2A4.05,4.05,0,0,1,63,63.29l8.52-17.62a2.7,2.7,0,0,1,1-1.17,2.81,2.81,0,0,1,1.5-.44A2.66,2.66,0,0,1,76.54,45.7ZM74,53.27l-2.08,4.32H76.1Z"/><path class="cls-5" d="M104.14,63.26a5.11,5.11,0,0,1,.47,1.64c0,.8-.65,1.47-2,2a4.38,4.38,0,0,1-1.62.44,1.62,1.62,0,0,1-1-.3,2.19,2.19,0,0,1-.58-.61c-.21-.4-1-2.31-2.46-5.71l-1,.06H92v3.56a9.31,9.31,0,0,1,0,1.09,2.52,2.52,0,0,1-.3.84c-.29.57-1.11.85-2.46.85s-2.33-.39-2.58-1.17a5.11,5.11,0,0,1-.19-1.64V46.83a9.75,9.75,0,0,1,0-1.08,2.38,2.38,0,0,1,.3-.84c.3-.57,1.12-.85,2.46-.85h6.81a8.7,8.7,0,0,1,5.39,2,7.34,7.34,0,0,1,2.09,2.64,8.47,8.47,0,0,1,.82,3.73A7.81,7.81,0,0,1,102,58.31Q102.68,60,104.14,63.26ZM92,55.22h4a3,3,0,0,0,1.83-.69,2.46,2.46,0,0,0,.92-2.08,2.49,2.49,0,0,0-.92-2.1A3.07,3.07,0,0,0,96,49.64H92Z"/><path class="cls-6" d="M106.42,46.83a9.24,9.24,0,0,1,0-1.08,2.38,2.38,0,0,1,.3-.84c.29-.57,1.11-.85,2.46-.85s2.34.39,2.61,1.16a6.09,6.09,0,0,1,.16,1.64V64.4a7.49,7.49,0,0,1,0,1.1,2.71,2.71,0,0,1-.29.82c-.3.57-1.12.85-2.46.85s-2.34-.4-2.59-1.2a4.82,4.82,0,0,1-.19-1.61Z"/><path class="cls-7" d="M129.58,45a1.47,1.47,0,0,1,.9-.74,4.93,4.93,0,0,1,1.5-.19,5.23,5.23,0,0,1,1.45.16,2.24,2.24,0,0,1,.82.38,1.19,1.19,0,0,1,.39.66,4.82,4.82,0,0,1,.19,1.61V64.4a9.26,9.26,0,0,1-.05,1.1,2.51,2.51,0,0,1-.3.82c-.29.57-1.11.85-2.46.85a5.08,5.08,0,0,1-1.7-.19,1.78,1.78,0,0,1-.79-.6Q122.44,56.93,120.2,54V64.4a9.26,9.26,0,0,1,0,1.1,2.51,2.51,0,0,1-.3.82c-.29.57-1.11.85-2.46.85s-2.1-.28-2.39-.85a2.49,2.49,0,0,1-.3-.85,9.84,9.84,0,0,1,0-1.11V46.77A3.84,3.84,0,0,1,115,45a1.47,1.47,0,0,1,.9-.74,5.08,5.08,0,0,1,1.54-.19,5.43,5.43,0,0,1,1.5.17,1.87,1.87,0,0,1,.77.4,6.44,6.44,0,0,1,.73.82q6.64,9,8.89,12V46.77A3.84,3.84,0,0,1,129.58,45Z"/></svg>