<svg id="Layer_1" data-name="Layer 1" xmlns="http://www.w3.org/2000/svg" viewBox="0 0 134.83 23.87"><defs><style>.cls-1{fill:#fff;}</style></defs><title>logo</title><path class="cls-1" d="M11.32.09a11.18,11.18,0,0,1,8.1,3.38,11.27,11.27,0,0,1,3.44,8.37,12,12,0,0,1-3.28,8.51,10.6,10.6,0,0,1-8.07,3.52A10.92,10.92,0,0,1,3.36,20.4,11.45,11.45,0,0,1,0,12.14a12.7,12.7,0,0,1,1-4.9A11.3,11.3,0,0,1,3.47,3.41,11.88,11.88,0,0,1,7.09,1,10.6,10.6,0,0,1,11.32.09ZM5.58,12a6.09,6.09,0,0,0,1.81,4.56,5.61,5.61,0,0,0,8.09.05A6,6,0,0,0,17.28,12a6.11,6.11,0,0,0-1.81-4.6,5.71,5.71,0,0,0-4.06-1.73,5.63,5.63,0,0,0-4,1.75A6,6,0,0,0,5.58,12Z"/><path class="cls-1" d="M34.45,11.89q4.83,4.63,6.84,7a3.23,3.23,0,0,1,1,2q0,.8-1.26,1.89A3.64,3.64,0,0,1,39,23.81c-.54,0-1.19-.45-1.94-1.33l-6.94-7.91v6.15a7.49,7.49,0,0,1-.05,1.1,2.51,2.51,0,0,1-.3.82c-.29.57-1.11.85-2.46.85s-2.33-.4-2.58-1.2a4.82,4.82,0,0,1-.19-1.61V3.15a9.24,9.24,0,0,1,.05-1.08,2.45,2.45,0,0,1,.3-.84C25.19.66,26,.38,27.36.38S29.7.77,30,1.55a6,6,0,0,1,.16,1.63v6q4.29-4.83,6.94-7.92Q38.16,0,39,0a3.56,3.56,0,0,1,2.08,1.09Q42.33,2.17,42.33,3a3.18,3.18,0,0,1-.94,1.91Q39.56,7,35.71,10.69Z"/><path class="cls-1" d="M53.75,11.89q4.81,4.63,6.84,7a3.29,3.29,0,0,1,1,2q0,.8-1.26,1.89a3.63,3.63,0,0,1-2.07,1.09c-.53,0-1.18-.45-1.93-1.33l-6.94-7.91v6.15a9.26,9.26,0,0,1,0,1.1,2.51,2.51,0,0,1-.3.82c-.29.57-1.11.85-2.46.85s-2.33-.4-2.58-1.2a4.82,4.82,0,0,1-.19-1.61V3.15a9.75,9.75,0,0,1,0-1.08,3,3,0,0,1,.3-.84c.3-.57,1.12-.85,2.46-.85S49,.77,49.27,1.55a6,6,0,0,1,.16,1.63v6q4.29-4.83,6.94-7.92Q57.47,0,58.29,0a3.56,3.56,0,0,1,2.08,1.09Q61.63,2.17,61.63,3a3.18,3.18,0,0,1-.94,1.91C59.47,6.3,57.57,8.23,55,10.69Z"/><path class="cls-1" d="M76.54,2l8.52,17.59a4.23,4.23,0,0,1,.53,1.61c0,.76-.61,1.44-1.83,2.05a4.07,4.07,0,0,1-1.68.54,1.68,1.68,0,0,1-1-.29,1.77,1.77,0,0,1-.57-.6c-.12-.21-.28-.52-.49-.94l-1.64-3.41H69.64L68,22c-.21.42-.38.72-.49.91a2.39,2.39,0,0,1-.57.59,1.68,1.68,0,0,1-1,.29,4.1,4.1,0,0,1-1.69-.53c-1.21-.59-1.82-1.26-1.82-2A4.05,4.05,0,0,1,63,19.61L71.47,2a2.7,2.7,0,0,1,1-1.17A2.81,2.81,0,0,1,74,.38,2.68,2.68,0,0,1,76.54,2ZM74,9.59l-2.08,4.32H76.1Z"/><path class="cls-1" d="M104.14,19.58a5.11,5.11,0,0,1,.47,1.64c0,.8-.65,1.47-2,2a4.38,4.38,0,0,1-1.62.44,1.62,1.62,0,0,1-1-.3,2.19,2.19,0,0,1-.58-.61c-.21-.4-1-2.31-2.46-5.71l-1,.06H92v3.56a9.31,9.31,0,0,1,0,1.09,2.52,2.52,0,0,1-.3.84c-.29.57-1.11.85-2.46.85s-2.33-.39-2.58-1.17a5.11,5.11,0,0,1-.19-1.64V3.15a9.75,9.75,0,0,1,0-1.08,2.45,2.45,0,0,1,.3-.84c.3-.57,1.12-.85,2.46-.85h6.81a8.7,8.7,0,0,1,5.39,2,7.3,7.3,0,0,1,2.09,2.65,8.4,8.4,0,0,1,.82,3.72A7.81,7.81,0,0,1,102,14.63C102.45,15.74,103.17,17.4,104.14,19.58ZM92,11.54h4a3,3,0,0,0,1.83-.69,2.46,2.46,0,0,0,.92-2.08,2.49,2.49,0,0,0-.92-2.1A3.07,3.07,0,0,0,96,6H92Z"/><path class="cls-1" d="M106.42,3.15a9.24,9.24,0,0,1,0-1.08,2.45,2.45,0,0,1,.3-.84c.29-.57,1.11-.85,2.46-.85s2.34.39,2.61,1.17A6,6,0,0,1,112,3.18V20.72a7.49,7.49,0,0,1,0,1.1,2.71,2.71,0,0,1-.29.82c-.3.57-1.12.85-2.46.85s-2.34-.4-2.59-1.2a4.82,4.82,0,0,1-.19-1.61Z"/><path class="cls-1" d="M129.58,1.34a1.51,1.51,0,0,1,.9-.74A4.93,4.93,0,0,1,132,.41a5.23,5.23,0,0,1,1.45.16,2.24,2.24,0,0,1,.82.38,1.19,1.19,0,0,1,.39.66,4.82,4.82,0,0,1,.19,1.61v17.5a9.26,9.26,0,0,1-.05,1.1,2.51,2.51,0,0,1-.3.82c-.29.57-1.11.85-2.46.85a5.08,5.08,0,0,1-1.7-.19,1.78,1.78,0,0,1-.79-.6q-7.09-9.45-9.33-12.36V20.72a9.26,9.26,0,0,1,0,1.1,2.51,2.51,0,0,1-.3.82c-.29.57-1.11.85-2.46.85s-2.1-.28-2.39-.85a2.49,2.49,0,0,1-.3-.85,9.84,9.84,0,0,1,0-1.11V3.09a3.84,3.84,0,0,1,.3-1.75,1.51,1.51,0,0,1,.9-.74,5.08,5.08,0,0,1,1.54-.19,5.43,5.43,0,0,1,1.5.17,1.87,1.87,0,0,1,.77.4,6.44,6.44,0,0,1,.73.82q6.64,9,8.89,12V3.09A3.84,3.84,0,0,1,129.58,1.34Z"/></svg>